<?xml version="1.0" encoding="UTF-8"?>
<!DOCTYPE svg PUBLIC "-//W3C//DTD SVG 1.0//EN" "http://www.w3.org/TR/2001/REC-SVG-20010904/DTD/svg10.dtd">
<!-- Creator: CorelDRAW 2018 (64-Bit) -->
<svg xmlns="http://www.w3.org/2000/svg" xml:space="preserve" width="1196px" height="1032px" version="1.0" style="shape-rendering:geometricPrecision; text-rendering:geometricPrecision; image-rendering:optimizeQuality; fill-rule:evenodd; clip-rule:evenodd"
viewBox="0 0 3596.28 3103.2"
 xmlns:xlink="http://www.w3.org/1999/xlink">
 <defs>
  <style type="text/css">
   <![CDATA[
    .str0 {stroke:#FEFEFE;stroke-width:7.1;stroke-miterlimit:22.9256}
    .fil2 {fill:#FEFEFE}
    .fil0 {fill:#223852}
    .fil1 {fill:#FCFCFC}
    .fil3 {fill:#4B6373;fill-rule:nonzero}
    .fil4 {fill:#223852;fill-rule:nonzero}
   ]]>
  </style>
 </defs>
 <g id="Layer_x0020_1">
  <metadata id="CorelCorpID_0Corel-Layer"/>
  <path class="fil0" d="M166.07 343.16c-179.31,49.27 -157.21,-13.56 -157.79,290.72 -0.99,522.1 -18.17,1060.6 0.08,1579.1 3.15,89.36 52.4,96.64 137.74,91.25 430.61,-27.19 882.86,-42.77 1311.85,-11.34 89.95,152.37 74.46,138.16 341.68,137.36 285.59,-0.86 248.31,12.34 340.66,-138.13 433.24,-30.94 871.8,-1.98 1310.38,15.55 177.03,7.08 138.43,-44.31 138.37,-296.1l-0.25 -1352.64c0.03,-47.11 6.73,-188.1 -0.31,-223.41 -14.19,-71.25 -77.97,-71.22 -154.86,-84.12 -21.48,-150.96 230.38,-78.92 -127.58,-194.4 -671.66,-216.7 -923.22,-170.6 -1498.75,33.93 -255.09,-53.87 -735.96,-384.88 -1541.52,-26.4 -108.98,48.5 -102.71,44.27 -99.7,178.63z"/>
  <path class="fil1" d="M1775.17 282.88c-104.32,-16.78 -335.14,-162.39 -714.48,-181.49 -196.27,-9.88 -650.57,53.95 -777.88,156.75l-4.62 1660.89c308.13,-55.7 528.92,-105.43 856.61,-56.11 281.24,42.32 442.99,120.67 639.32,313.57 1.84,1.81 1.07,-1592.67 1.05,-1893.61zm30.46 1896.57l25.04 -17.45c250.15,-214.59 424.95,-290.03 766.93,-312.19 290.74,-18.83 441.97,37.13 714.29,75.66l-0.22 -1668.61c-195.9,-110.11 -457.79,-155.83 -713.81,-152.31 -366.33,5.04 -592.45,164.65 -792.23,179.71l0 1895.19z"/>
  <path class="fil2 str0" d="M1716.93 2262.62c-135.98,-235 -584.58,-437.03 -1374.81,-262.18 655,-66.56 1117.15,20.04 1374.81,262.18z"/>
  <path class="fil2 str0" d="M1852.94 2267.98c135.98,-235 584.59,-437.03 1374.82,-262.18 -655,-66.56 -1117.15,20.05 -1374.82,262.18z"/>
  <g>
   <path class="fil3" d="M504.63 1367.78c-18.87,5.33 -38.49,-5.65 -43.82,-24.51 -5.33,-18.87 5.65,-38.49 24.51,-43.82l19.31 68.33zm1001.14 -68.24l-19.91 68.15 -29.71 -8.4 -29.76 -7.88 -29.82 -7.35 -29.88 -6.82 -29.93 -6.3 -29.99 -5.75 -30.04 -5.23 -30.1 -4.69 -30.17 -4.15 -30.22 -3.61 -30.28 -3.07 -30.35 -2.54 -30.4 -1.98 -30.47 -1.44 -30.54 -0.9 -30.59 -0.35 -30.66 0.2 -30.73 0.76 -30.8 1.31 -30.86 1.86 -30.93 2.42 -31.01 2.98 -31.07 3.54 -31.14 4.11 -31.22 4.67 -31.28 5.24 -31.36 5.81 -31.44 6.37 -31.5 6.96 -31.59 7.53 -31.66 8.1 -31.73 8.69 -19.31 -68.33 32.86 -9 32.8 -8.39 32.74 -7.81 32.68 -7.21 32.62 -6.62 32.56 -6.03 32.5 -5.44 32.43 -4.85 32.38 -4.27 32.31 -3.68 32.26 -3.1 32.18 -2.52 32.13 -1.95 32.07 -1.36 32 -0.78 31.94 -0.21 31.87 0.36 31.81 0.93 31.74 1.51 31.68 2.07 31.62 2.63 31.54 3.21 31.48 3.76 31.41 4.32 31.34 4.88 31.28 5.44 31.21 5.99 31.14 6.55 31.07 7.09 31 7.64 30.93 8.19 30.87 8.74zm0 0c18.82,5.49 29.62,25.21 24.12,44.03 -5.49,18.82 -25.21,29.62 -44.03,24.12l19.91 -68.15z"/>
  </g>
  <g>
   <path class="fil3" d="M511.46 1680.74c-18.86,5.33 -38.49,-5.64 -43.81,-24.51 -5.33,-18.86 5.64,-38.49 24.51,-43.81l19.3 68.32zm1001.14 -68.24l-19.9 68.16 -29.71 -8.41 -29.77 -7.88 -29.82 -7.35 -29.87 -6.82 -29.94 -6.29 -29.98 -5.76 -30.05 -5.22 -30.1 -4.69 -30.16 -4.15 -30.23 -3.62 -30.28 -3.07 -30.34 -2.53 -30.41 -1.99 -30.47 -1.44 -30.53 -0.9 -30.6 -0.34 -30.66 0.2 -30.73 0.75 -30.79 1.31 -30.87 1.87 -30.93 2.42 -31 2.98 -31.07 3.54 -31.15 4.1 -31.21 4.68 -31.29 5.24 -31.36 5.8 -31.43 6.38 -31.51 6.95 -31.58 7.53 -31.67 8.11 -31.73 8.68 -19.3 -68.32 32.86 -9 32.79 -8.4 32.74 -7.8 32.69 -7.21 32.61 -6.62 32.56 -6.03 32.5 -5.44 32.43 -4.86 32.38 -4.26 32.32 -3.69 32.25 -3.1 32.19 -2.52 32.13 -1.94 32.06 -1.36 32.01 -0.79 31.93 -0.21 31.88 0.36 31.8 0.94 31.74 1.5 31.69 2.07 31.61 2.64 31.54 3.2 31.48 3.77 31.41 4.32 31.35 4.88 31.27 5.43 31.22 6 31.14 6.54 31.06 7.1 31 7.64 30.94 8.19 30.86 8.73zm0 0c18.82,5.5 29.62,25.21 24.13,44.03 -5.5,18.82 -25.21,29.62 -44.03,24.13l19.9 -68.16z"/>
  </g>
  <g>
   <path class="fil3" d="M2091.72 1528.92c-19.24,-3.77 -31.77,-22.43 -28,-41.66 3.77,-19.24 22.43,-31.78 41.67,-28.01l-13.67 69.67zm1000.45 -69.59l14.45 69.52 -32.58 6.54 -32.52 6.08 -32.46 5.62 -32.41 5.17 -32.34 4.72 -32.29 4.27 -32.24 3.83 -32.18 3.38 -32.12 2.95 -32.07 2.52 -32 2.1 -31.96 1.67 -31.9 1.25 -31.84 0.84 -31.79 0.43 -31.73 0.02 -31.68 -0.38 -31.63 -0.77 -31.57 -1.17 -31.5 -1.56 -31.47 -1.94 -31.41 -2.32 -31.35 -2.7 -31.3 -3.07 -31.25 -3.43 -31.2 -3.8 -31.15 -4.16 -31.09 -4.51 -31.05 -4.86 -30.98 -5.21 -30.94 -5.55 -30.9 -5.89 13.67 -69.67 30.14 5.74 30.18 5.41 30.22 5.08 30.25 4.74 30.3 4.4 30.34 4.04 30.38 3.7 30.42 3.35 30.47 2.98 30.5 2.63 30.55 2.26 30.6 1.88 30.64 1.52 30.69 1.14 30.73 0.75 30.79 0.36 30.83 -0.02 30.88 -0.41 30.92 -0.82 30.98 -1.22 31.03 -1.62 31.08 -2.03 31.14 -2.45 31.18 -2.86 31.25 -3.29 31.3 -3.71 31.35 -4.15 31.41 -4.57 31.47 -5.02 31.53 -5.47 31.58 -5.9 31.65 -6.36zm0 0c19.19,-4 37.99,8.33 41.98,27.53 3.99,19.19 -8.33,38 -27.53,41.99l-14.45 -69.52z"/>
  </g>
  <path class="fil3" d="M3059.33 345.75c-20.16,4.34 -34.65,8.88 -43.48,13.22 -8.84,4.33 -15.74,9.91 -20.96,16.73 -4.99,6.6 -8.7,16.52 -10.89,29.94 -1.96,13.22 -2.74,33.87 -1.9,61.54l15.96 523.54c0.82,26.84 2.6,46.67 4.88,59.27 2.5,12.39 6.34,22.3 11.28,29.53 5.17,7.23 12.44,13.42 22.02,18.17 9.59,4.96 25.07,9.71 46.45,14.46l0.91 29.74 -288.33 0 -0.91 -29.74c26.26,-5.57 44.23,-11.98 54.16,-19.21 9.93,-7.22 16.44,-17.96 19.78,-32.21 3.11,-14.05 4.29,-37.38 3.3,-70.01l-7.07 -231.72c-1.86,-60.92 -2.56,-122.68 -2.57,-185.04 0.22,-62.17 1.28,-104.92 3.41,-127.84l-11.79 0 -255.43 599.53 -79.51 0 -272.92 -609.24 -11.8 0c3.11,24.58 6.59,69.19 10.68,133.62 4.09,64.64 7.06,130.94 9.14,199.09l6.75 221.6c0.82,26.84 2.6,46.67 5.11,59.27 2.27,12.39 6.11,22.3 11.28,29.53 4.94,7.23 12.21,13.42 21.79,18.17 9.59,4.96 25.07,9.71 46.45,14.46l0.91 29.74 -252.23 0 -0.9 -29.74c28.35,-6.4 47.25,-13.42 56.67,-21.48 9.44,-7.84 15.47,-19 18.1,-33.45 2.39,-14.46 3.36,-36.77 2.45,-66.5l-15.95 -523.54c-0.85,-27.67 -2.65,-48.11 -5.39,-60.71 -2.76,-12.81 -6.83,-22.51 -12.23,-29.74 -5.65,-7.02 -12.9,-12.6 -21.76,-16.94 -8.85,-4.13 -23.86,-8.88 -45.26,-14.04l-0.9 -29.74 246.8 0 260.5 588.8 248.91 -588.8 233.58 0 0.91 29.74z"/>
  <path class="fil3" d="M763.1 878.35c9.2,35.53 22.12,63.41 38.52,84.06 16.66,20.65 38.27,35.72 64.86,45.64 26.84,9.91 61.19,14.87 103.55,14.87 58.44,0 103.37,-12.39 135.03,-36.97 31.67,-24.58 48.01,-60.51 49.02,-107.6 0.66,-30.36 -5.18,-55.76 -17.76,-76.2 -12.57,-20.66 -33.33,-40.07 -62.29,-58.24 -28.96,-17.97 -73.41,-39.24 -133.13,-63.41 -57.94,-23.33 -103.38,-46.26 -136.83,-68.77 -33.47,-22.3 -58.21,-46.67 -74.49,-72.9 -16.02,-26.23 -23.83,-54.73 -23.16,-85.91 0.98,-45.23 15.09,-84.26 41.84,-117.72 27,-33.25 65.84,-58.86 116.76,-77.03 51.17,-18.17 109.3,-27.26 174.38,-27.26 38.02,0 74.99,1.65 110.9,4.95 36.18,3.1 81.2,10.33 135.31,21.69l-3.52 163.36 -74.01 0c-10.72,-35.52 -24.42,-63.2 -41.6,-82.82 -16.93,-19.82 -37.05,-33.66 -60.35,-41.51 -23.32,-7.85 -53.6,-11.77 -90.86,-11.77 -32.41,0 -61.61,4.75 -87.59,14.46 -25.73,9.7 -46.47,24.37 -61.69,43.99 -15.48,19.41 -23.38,42.75 -23.96,69.8 -0.62,28.71 5.24,52.87 17.32,72.49 12.34,19.82 31.85,38.21 58.28,55.14 26.69,16.94 66.09,35.93 118.47,56.8 63.24,25.81 112.23,49.97 146.98,72.07 34.48,22.3 61.5,47.5 80.54,76 19.04,28.29 28.27,61.54 27.46,99.54 -0.92,42.34 -10.1,78.07 -27.07,107.4 -17.22,29.11 -40.44,53.07 -69.93,71.25 -29.49,18.38 -64.74,31.8 -105.5,40.06 -41.01,8.26 -85.5,12.39 -133.73,12.39 -78.35,0 -168.21,-10.74 -270.09,-32.01l3.57 -165.84 74.77 0z"/>
  <path class="fil4" d="M106.54 3000.6c-18.79,0 -36.38,-1.51 -52.77,-4.62 -16.4,-3.02 -31.6,-7.56 -45.61,-13.61l6.05 -47.11c17.11,7.32 33.59,12.89 49.58,16.71 15.92,3.82 31.45,5.73 46.49,5.73 21.81,0 37.96,-3.82 48.55,-11.46 10.51,-7.64 15.84,-19.19 15.84,-34.79 0,-19.74 -10.11,-34.14 -30.32,-43.29l-57.39 -26.19c-22.53,-10.27 -39.8,-22.61 -51.9,-37.01 -12.02,-14.49 -18.06,-32.48 -18.06,-53.88 0,-28.9 8.75,-51.34 26.1,-67.18 17.43,-15.84 42.11,-23.8 73.94,-23.8 22.21,0 41.87,3.26 58.98,9.79 17.12,6.52 33.59,17.19 49.43,32l-32.63 33.11c-13.69,-11.23 -26.43,-19.35 -38.37,-24.36 -11.86,-5.09 -24.27,-7.64 -37.17,-7.64 -16,0 -28.41,3.9 -37.17,11.54 -8.83,7.72 -13.21,19.1 -13.21,34.22 0,10.67 2.87,19.43 8.67,26.19 5.74,6.77 14.17,12.82 25.4,18.07l48.47 22.84c24.59,11.55 43.22,24.52 55.95,39 12.82,14.41 19.18,33.03 19.18,55.72 0,30.01 -9.78,52.45 -29.29,67.49 -19.5,14.97 -49.11,22.53 -88.74,22.53z"/>
  <path id="1" class="fil4" d="M405.91 3000.6c-42.18,0 -74.65,-11.14 -97.58,-33.27 -23,-22.13 -34.46,-53.97 -34.46,-95.51 0,-40.36 10.9,-71.8 32.55,-94.16 21.73,-22.37 52.69,-33.59 92.97,-33.59 24.03,0 44.73,4.46 61.84,13.37 17.19,9 29.45,21.57 36.77,37.89l-38.04 28.73c-7.01,-11.38 -15.92,-20.14 -26.82,-26.34 -10.83,-6.21 -22.77,-9.32 -35.66,-9.32 -23.32,0 -41.39,7.01 -54.28,21.09 -12.98,14.01 -19.42,34.07 -19.42,60.02 0,28.18 7.64,49.67 22.76,64.47 15.12,14.88 36.77,22.29 64.95,22.29 11.54,0 23,-0.56 34.54,-1.68 11.46,-1.03 22.68,-2.54 33.51,-4.37l5.65 43.38c-12.73,2.78 -25.95,4.61 -39.56,5.57 -13.61,0.95 -26.82,1.43 -39.72,1.43z"/>
  <path id="2" class="fil4" d="M629.44 2889.57l-14.49 -77.45 19.11 0c2.86,-45.37 25.54,-68.05 68.13,-68.05 25.47,0 44.01,7.32 55.48,21.89 11.54,14.64 17.27,38.28 17.27,70.92l-48.95 0c0,-18.07 -2.71,-31.05 -8.04,-38.92 -5.42,-7.96 -14.09,-11.94 -26.03,-11.94 -21.01,0 -36.61,8.99 -46.96,26.98 -10.35,17.91 -15.52,43.46 -15.52,76.57zm-104.51 106.33l0 -40.59 165.16 0 0 40.59 -165.16 0zm55.08 0l0 -247.14 40.12 0 9.31 70.85 0 176.29 -49.43 0zm-45.68 -206.62l0 -40.52 82.53 0 4.62 40.52 -87.15 0z"/>
  <path id="3" class="fil4" d="M901.91 2995.9l0 -233.2 49.43 0 0 233.2 -49.43 0zm-94.15 0l0 -40.59 98.85 0 0 40.59 -98.85 0zm138.96 0l0 -40.59 80.71 0 0 40.59 -80.71 0zm-124.96 -206.62l0 -40.52 129.58 0 0 40.52 -129.58 0zm103.24 -79.75c-9.48,0 -17.6,-3.35 -24.36,-10.11 -6.77,-6.77 -10.11,-14.89 -10.11,-24.36 0,-9.63 3.34,-17.83 10.11,-24.51 6.76,-6.69 14.88,-10.03 24.36,-10.03 9.63,0 17.82,3.34 24.51,10.03 6.69,6.68 10.03,14.88 10.03,24.51 0,9.47 -3.34,17.59 -10.03,24.36 -6.69,6.76 -14.88,10.11 -24.51,10.11z"/>
  <path id="4" class="fil4" d="M1073.7 3103.2l0 -354.44 44.81 0 4.62 52.22 0 302.22 -49.43 0zm119.63 -102.6c-18.94,0 -34.22,-4.38 -45.84,-13.05 -11.55,-8.76 -18.15,-20.86 -19.67,-36.46l-21.49 0 16.8 -70.36c0,25.47 5.01,44.81 15.04,58.03 10.03,13.21 24.76,19.81 44.18,19.81 19.89,0 35.02,-7.08 45.29,-21.17 10.26,-14.17 15.36,-35.1 15.36,-62.72 0,-29.29 -5.1,-51.34 -15.36,-66.22 -10.27,-14.96 -25.4,-22.44 -45.29,-22.44 -19.42,0 -34.15,6.6 -44.18,19.81 -10.03,13.22 -15.04,32.56 -15.04,58.11l-16.8 -70.44 19.19 0c2.14,-15.52 9.15,-27.7 21.09,-36.37 11.86,-8.68 27.46,-13.06 46.72,-13.06 32.47,0 57.07,11.06 73.7,33.11 16.64,22.05 24.92,54.52 24.92,97.5 0,41.31 -8.28,72.67 -24.92,93.92 -16.63,21.34 -41.23,32 -73.7,32z"/>
  <path id="5" class="fil4" d="M1483.31 3000.6c-37.4,0 -64.54,-7.8 -81.26,-23.32 -16.72,-15.6 -25.07,-40.43 -25.07,-74.66l0 -41.94 49.43 0 0 39.63c0,19.58 4.85,33.83 14.4,42.66 9.55,8.84 25.31,13.3 47.2,13.3 7.8,0 16,-0.4 24.76,-1.28 8.67,-0.87 18.62,-1.99 29.84,-3.42l5.57 43.38c-10.9,1.91 -21.49,3.26 -31.83,4.22 -10.35,0.95 -21.33,1.43 -33.04,1.43zm-106.33 -121.3l0 -205.19 49.43 0 0 205.19 -49.43 0zm-62 -90.02l0 -40.52 223.89 0 0 40.52 -223.89 0z"/>
  <path id="6" class="fil4" d="M1753.56 2998.21l-3.34 -73.22 -6.53 -20.46 0 -63.91c0,-16.48 -5.73,-28.58 -17.35,-36.3 -11.54,-7.64 -28.81,-11.86 -51.66,-12.49l-59.21 -1.6 4.69 -43.85 49.91 0.72c40.83,0.63 71.23,9.47 91.05,26.5 19.82,16.95 29.69,41.78 29.69,74.5l0 102.99 42.03 5.18 0 39.63 -79.28 2.31zm-87.23 2.39c-25.79,0 -45.77,-6.29 -59.94,-18.71 -14.16,-12.41 -21.25,-30 -21.25,-52.68 0,-26.11 9.79,-46.17 29.29,-60.18 19.5,-14.01 47.04,-20.93 82.7,-20.93 14.72,0 27.94,0.87 39.48,2.62 11.62,1.84 21.89,4.46 30.88,8.05l-10.27 33.58c-10.34,-2.3 -20.53,-3.66 -30.48,-4.06 -9.95,-0.4 -20.14,-0.55 -30.56,-0.55 -42.9,0 -64.4,13.05 -64.4,39.16 0,10.82 3.74,19.26 11.07,25.15 7.4,5.89 17.91,8.83 31.36,8.83 15.44,0 28.25,-2.62 38.6,-7.88 10.35,-5.33 18.07,-12.01 23.24,-20.29 5.09,-8.2 7.64,-16.72 7.64,-25.4l0 -27.06 14.49 63.44 -19.58 0 7.96 -7.48c0,14.33 -3.35,26.26 -9.95,35.82 -6.61,9.55 -15.92,16.71 -27.86,21.41 -11.94,4.77 -26.11,7.16 -42.42,7.16z"/>
  <path id="7" class="fil4" d="M2158.13 2860.68l7.01 -53.65 2.79 0 37.8 -142.24 33.11 0 0 58.75 -13.53 0 -37.8 137.14 -29.38 0zm-102.11 135.22l0 -331.11 44.81 0 0 331.11 -44.81 0zm88.58 -135.22l-37.72 -137.14 -13.53 0 0 -58.75 33.11 0 37.72 142.24 1.91 0 4.62 53.65 -26.11 0zm86.76 135.22l0 -331.11 44.81 0 0 331.11 -44.81 0z"/>
  <path id="8" class="fil4" d="M2481.07 2998.21l-3.34 -73.22 -6.53 -20.46 0 -63.91c0,-16.48 -5.73,-28.58 -17.35,-36.3 -11.54,-7.64 -28.81,-11.86 -51.66,-12.49l-59.22 -1.6 4.7 -43.85 49.91 0.72c40.83,0.63 71.23,9.47 91.05,26.5 19.82,16.95 29.69,41.78 29.69,74.5l0 102.99 42.03 5.18 0 39.63 -79.28 2.31zm-87.23 2.39c-25.79,0 -45.77,-6.29 -59.94,-18.71 -14.17,-12.41 -21.25,-30 -21.25,-52.68 0,-26.11 9.79,-46.17 29.29,-60.18 19.5,-14.01 47.04,-20.93 82.7,-20.93 14.72,0 27.94,0.87 39.48,2.62 11.62,1.84 21.89,4.46 30.88,8.05l-10.27 33.58c-10.34,-2.3 -20.53,-3.66 -30.48,-4.06 -9.95,-0.4 -20.14,-0.55 -30.56,-0.55 -42.91,0 -64.4,13.05 -64.4,39.16 0,10.82 3.74,19.26 11.07,25.15 7.4,5.89 17.91,8.83 31.36,8.83 15.44,0 28.25,-2.62 38.6,-7.88 10.35,-5.33 18.07,-12.01 23.24,-20.29 5.09,-8.2 7.64,-16.72 7.64,-25.4l0 -27.06 14.49 63.44 -19.58 0 7.96 -7.48c0,14.33 -3.35,26.26 -9.95,35.82 -6.61,9.55 -15.92,16.71 -27.86,21.41 -11.94,4.77 -26.11,7.16 -42.42,7.16z"/>
  <path id="9" class="fil4" d="M2745.59 2995.9l0 -160.94c0,-14.88 -3.82,-26.42 -11.62,-34.46 -7.8,-8.12 -18.63,-12.1 -32.64,-12.1 -38.92,0 -58.34,22.85 -58.34,68.53l-14.41 -63.43 19.11 0c1.35,-16.64 7.48,-29.05 18.14,-37.17 10.75,-8.2 26.43,-12.26 47.12,-12.26 26.11,0 46.33,7.96 60.65,23.8 14.33,15.84 21.41,38.2 21.41,67.09l0 160.94 -49.42 0zm-152.03 0l0 -247.14 44.81 0 4.62 52.22 0 194.92 -49.43 0z"/>
  <path id="10" class="fil4" d="M2982.24 3000.6c-42.18,0 -74.66,-11.14 -97.58,-33.27 -23,-22.13 -34.46,-53.97 -34.46,-95.51 0,-40.36 9.79,-71.8 29.21,-94.16 19.42,-22.37 46.88,-33.59 82.3,-33.59 33.43,0 59.22,10.11 77.52,30.32 18.23,20.22 27.38,49.59 27.38,88.11 0,11.39 -0.47,21.97 -1.35,31.76l-173.51 0 0 -37.8 130.13 0c0,-22.21 -5.33,-39.32 -15.92,-51.18 -10.5,-11.86 -25.15,-17.83 -43.77,-17.83 -21.02,0 -37.33,7.16 -48.88,21.41 -11.62,14.32 -17.35,34.54 -17.35,60.65 0,28.57 7.96,50.38 23.88,65.27 15.92,14.96 38.61,22.44 67.98,22.44 10.26,0 20.37,-0.63 30.32,-1.75 9.95,-1.19 20.06,-2.79 30.33,-4.77l6.05 43.37c-14.65,2.79 -28.02,4.54 -40.12,5.33 -12.1,0.8 -22.84,1.2 -32.16,1.2z"/>
  <path id="11" class="fil4" d="M3273.82 2995.9l0 -160.94c0,-14.88 -3.82,-26.42 -11.62,-34.46 -7.8,-8.12 -18.62,-12.1 -32.63,-12.1 -38.92,0 -58.34,22.85 -58.34,68.53l-14.41 -63.43 19.1 0c1.35,-16.64 7.48,-29.05 18.15,-37.17 10.74,-8.2 26.42,-12.26 47.12,-12.26 26.1,0 46.32,7.96 60.65,23.8 14.32,15.84 21.41,38.2 21.41,67.09l0 160.94 -49.43 0zm-152.02 0l0 -247.14 44.81 0 4.62 52.22 0 194.92 -49.43 0z"/>
  <path id="12" class="fil4" d="M3531.41 3000.6c-37.41,0 -64.55,-7.8 -81.27,-23.32 -16.71,-15.6 -25.07,-40.43 -25.07,-74.66l0 -41.94 49.43 0 0 39.63c0,19.58 4.86,33.83 14.41,42.66 9.55,8.84 25.31,13.3 47.2,13.3 7.8,0 15.99,-0.4 24.75,-1.28 8.68,-0.87 18.63,-1.99 29.85,-3.42l5.57 43.38c-10.9,1.91 -21.49,3.26 -31.84,4.22 -10.34,0.95 -21.33,1.43 -33.03,1.43zm-106.34 -121.3l0 -205.19 49.43 0 0 205.19 -49.43 0zm-62 -90.02l0 -40.52 223.9 0 0 40.52 -223.9 0z"/>
 </g>
</svg>
