<?xml version="1.0" encoding="UTF-8"?>
<!DOCTYPE svg PUBLIC "-//W3C//DTD SVG 1.0//EN" "http://www.w3.org/TR/2001/REC-SVG-20010904/DTD/svg10.dtd">
<!-- Creator: CorelDRAW 2018 (64-Bit) -->
<svg xmlns="http://www.w3.org/2000/svg" xml:space="preserve" width="90px" height="90px" version="1.0" style="shape-rendering:geometricPrecision; text-rendering:geometricPrecision; image-rendering:optimizeQuality; fill-rule:evenodd; clip-rule:evenodd"
viewBox="0 0 176.79 176.79"
 xmlns:xlink="http://www.w3.org/1999/xlink">
 <defs>
  <style type="text/css">
   <![CDATA[
    .str0 {stroke:#FEFEFE;stroke-width:0.26;stroke-miterlimit:22.9256}
    .fil0 {fill:#FEFEFE}
    .fil2 {fill:#FDFCFC}
    .fil3 {fill:#4A6373}
    .fil1 {fill:#213853}
    .fil4 {fill:#4A6272;fill-rule:nonzero}
    .fil5 {fill:#203852;fill-rule:nonzero}
   ]]>
  </style>
 </defs>
 <g id="__x0023_Layer_x0020_1">
  <metadata id="CorelCorpID_0Corel-Layer"/>
  <path class="fil0 str0" d="M88.39 176.66c48.62,0 88.27,-39.65 88.27,-88.27 0,-48.61 -39.65,-88.26 -88.27,-88.26 -48.61,0 -88.26,39.65 -88.26,88.26 0,48.62 39.65,88.27 88.26,88.27z"/>
  <path class="fil1" d="M29.08 41.59c-6.61,1.81 -5.79,-0.5 -5.82,10.71 -0.03,19.24 -0.67,39.09 0.01,58.2 0.11,3.3 1.93,3.57 5.07,3.37 15.88,-1 32.54,-1.58 48.36,-0.42 3.31,5.62 2.74,5.09 12.59,5.06 10.53,-0.03 9.15,0.46 12.56,-5.09 15.97,-1.14 32.13,-0.07 48.3,0.57 6.52,0.27 5.1,-1.63 5.1,-10.91l-0.01 -49.86c0,-1.73 0.24,-6.93 -0.01,-8.23 -0.53,-2.63 -2.88,-2.63 -5.71,-3.1 -0.79,-5.57 8.49,-2.91 -4.71,-7.17 -24.75,-7.98 -34.02,-6.28 -55.24,1.25 -9.4,-1.98 -27.12,-14.18 -56.82,-0.97 -4.01,1.79 -3.78,1.63 -3.67,6.59z"/>
  <path class="fil2" d="M88.39 39.36c-3.85,-0.61 -12.35,-5.98 -26.34,-6.69 -7.23,-0.36 -23.97,1.99 -28.67,5.78l-0.17 61.22c11.36,-2.05 19.5,-3.89 31.58,-2.07 10.36,1.56 16.32,4.45 23.56,11.56 0.07,0.07 0.04,-58.7 0.04,-69.8zm1.12 69.91l0 0 0.92 -0.64c9.22,-7.91 15.67,-10.69 28.27,-11.51 10.72,-0.7 16.29,1.37 26.33,2.79l-0.01 -61.51c-7.22,-4.05 -16.87,-5.74 -26.31,-5.61 -13.5,0.19 -21.83,6.07 -29.2,6.62l0 69.86z"/>
  <path class="fil0 str0" d="M86.24 112.33c-5.01,-8.66 -21.54,-16.1 -50.67,-9.66 24.14,-2.45 41.18,0.74 50.67,9.66z"/>
  <path class="fil0 str0" d="M91.26 112.53c5.01,-8.66 21.54,-16.11 50.67,-9.66 -24.14,-2.45 -41.18,0.74 -50.67,9.66z"/>
  <g id="_1745981625984">
   <path class="fil3" d="M41.56 79.35c-0.7,0.2 -1.42,-0.21 -1.62,-0.9 -0.19,-0.7 0.21,-1.42 0.91,-1.62l0.71 2.52zm36.9 -2.51l0 0 -0.73 2.51 -1.1 -0.31 -1.1 -0.29 -1.1 -0.27 -1.1 -0.25 -1.1 -0.24 -1.11 -0.21 -1.1 -0.19 -1.11 -0.17 -1.11 -0.16 -1.12 -0.13 -1.11 -0.11 -1.12 -0.1 -1.12 -0.07 -1.13 -0.05 -1.12 -0.04 -1.13 -0.01 -1.13 0.01 -1.13 0.03 -1.14 0.04 -1.14 0.07 -1.14 0.09 -1.14 0.11 -1.14 0.13 -1.15 0.15 -1.15 0.18 -1.16 0.19 -1.15 0.21 -1.16 0.24 -1.16 0.26 -1.16 0.27 -1.17 0.3 -1.17 0.32 -0.71 -2.52 1.21 -0.33 1.21 -0.31 1.2 -0.29 1.21 -0.26 1.2 -0.25 1.2 -0.22 1.2 -0.2 1.19 -0.18 1.2 -0.15 1.19 -0.14 1.19 -0.11 1.18 -0.1 1.19 -0.07 1.18 -0.05 1.18 -0.03 1.18 -0.01 1.17 0.02 1.17 0.03 1.17 0.06 1.17 0.07 1.17 0.1 1.16 0.12 1.16 0.14 1.16 0.16 1.15 0.18 1.16 0.2 1.15 0.22 1.14 0.24 1.15 0.26 1.14 0.28 1.14 0.3 1.14 0.33zm0 0c0.69,0.2 1.09,0.93 0.89,1.62 -0.2,0.69 -0.93,1.09 -1.62,0.89l0.73 -2.51z"/>
  </g>
  <g id="_1745981625408">
   <path class="fil3" d="M41.81 90.89c-0.69,0.19 -1.42,-0.21 -1.61,-0.91 -0.2,-0.69 0.2,-1.41 0.9,-1.61l0.71 2.52zm36.9 -2.52l0 0 -0.73 2.51 -1.1 -0.31 -1.09 -0.29 -1.1 -0.27 -1.11 -0.25 -1.1 -0.23 -1.1 -0.21 -1.11 -0.2 -1.11 -0.17 -1.11 -0.15 -1.12 -0.13 -1.11 -0.12 -1.12 -0.09 -1.12 -0.07 -1.12 -0.06 -1.13 -0.03 -1.13 -0.01 -1.13 0 -1.13 0.03 -1.14 0.05 -1.13 0.07 -1.14 0.09 -1.15 0.11 -1.14 0.13 -1.15 0.15 -1.15 0.17 -1.15 0.2 -1.16 0.21 -1.16 0.23 -1.16 0.26 -1.16 0.28 -1.17 0.3 -1.17 0.32 -0.71 -2.52 1.21 -0.33 1.21 -0.31 1.21 -0.29 1.2 -0.27 1.2 -0.24 1.2 -0.22 1.2 -0.2 1.2 -0.18 1.19 -0.16 1.19 -0.13 1.19 -0.12 1.19 -0.09 1.18 -0.07 1.18 -0.05 1.18 -0.03 1.18 -0.01 1.17 0.01 1.18 0.04 1.17 0.05 1.16 0.08 1.17 0.1 1.16 0.11 1.16 0.14 1.16 0.16 1.15 0.18 1.16 0.2 1.15 0.22 1.15 0.24 1.14 0.27 1.14 0.28 1.14 0.3 1.14 0.32zm0 0c0.69,0.2 1.09,0.93 0.89,1.62 -0.2,0.7 -0.93,1.1 -1.62,0.89l0.73 -2.51z"/>
  </g>
  <g id="_1745981626688">
   <path class="fil3" d="M100.06 85.29c-0.71,-0.14 -1.17,-0.83 -1.04,-1.53 0.14,-0.71 0.83,-1.18 1.54,-1.04l-0.5 2.57zm36.87 -2.56l0 0 0.53 2.56 -1.2 0.24 -1.2 0.22 -1.19 0.21 -1.2 0.19 -1.19 0.18 -1.19 0.15 -1.19 0.14 -1.18 0.13 -1.19 0.11 -1.18 0.09 -1.18 0.08 -1.18 0.06 -1.17 0.05 -1.18 0.03 -1.17 0.01 -1.17 0 -1.16 -0.01 -1.17 -0.03 -1.16 -0.04 -1.17 -0.06 -1.15 -0.07 -1.16 -0.09 -1.16 -0.1 -1.15 -0.11 -1.15 -0.13 -1.15 -0.14 -1.15 -0.15 -1.15 -0.17 -1.14 -0.18 -1.14 -0.19 -1.14 -0.2 -1.14 -0.22 0.5 -2.57 1.11 0.21 1.11 0.2 1.12 0.19 1.11 0.18 1.12 0.16 1.12 0.15 1.12 0.13 1.12 0.13 1.12 0.11 1.13 0.09 1.12 0.09 1.13 0.07 1.13 0.05 1.13 0.04 1.13 0.03 1.14 0.02 1.13 -0.01 1.14 -0.01 1.14 -0.03 1.14 -0.05 1.15 -0.06 1.14 -0.07 1.15 -0.09 1.15 -0.11 1.15 -0.12 1.16 -0.13 1.15 -0.16 1.16 -0.17 1.16 -0.18 1.16 -0.2 1.17 -0.22 1.16 -0.23zm0 0c0.71,-0.15 1.4,0.3 1.55,1.01 0.15,0.71 -0.31,1.4 -1.02,1.55l-0.53 -2.56z"/>
  </g>
  <path class="fil4" d="M135.95 41.91c-0.74,0.16 -1.27,0.33 -1.6,0.49 -0.33,0.16 -0.58,0.36 -0.77,0.62 -0.19,0.24 -0.32,0.6 -0.4,1.1 -0.08,0.49 -0.11,1.25 -0.07,2.27l0.58 19.29c0.03,0.99 0.1,1.72 0.18,2.19 0.1,0.46 0.24,0.82 0.42,1.09 0.19,0.26 0.46,0.49 0.81,0.67 0.36,0.18 0.93,0.36 1.71,0.53l0.04 1.1 -10.63 0 -0.03 -1.1c0.96,-0.21 1.63,-0.44 1.99,-0.71 0.37,-0.26 0.61,-0.66 0.73,-1.19 0.12,-0.51 0.16,-1.37 0.12,-2.58l-0.26 -8.54c-0.07,-2.24 -0.09,-4.52 -0.09,-6.82 0.01,-2.29 0.04,-3.86 0.12,-4.71l-0.43 0 -9.42 22.1 -2.93 0 -10.06 -22.46 -0.43 0c0.11,0.91 0.24,2.55 0.39,4.93 0.15,2.38 0.26,4.82 0.34,7.34l0.25 8.16c0.03,0.99 0.09,1.72 0.19,2.19 0.08,0.46 0.22,0.82 0.41,1.09 0.18,0.26 0.45,0.49 0.81,0.67 0.35,0.18 0.92,0.36 1.71,0.53l0.03 1.1 -9.3 0 -0.03 -1.1c1.05,-0.24 1.74,-0.49 2.09,-0.79 0.35,-0.29 0.57,-0.7 0.67,-1.23 0.08,-0.54 0.12,-1.36 0.09,-2.46l-0.59 -19.29c-0.03,-1.02 -0.1,-1.78 -0.2,-2.24 -0.1,-0.47 -0.25,-0.83 -0.45,-1.1 -0.21,-0.26 -0.48,-0.46 -0.8,-0.62 -0.33,-0.15 -0.88,-0.33 -1.67,-0.52l-0.03 -1.09 9.09 0 9.6 21.7 9.18 -21.7 8.61 0 0.03 1.09z"/>
  <path class="fil4" d="M51.32 61.54c0.33,1.31 0.81,2.34 1.42,3.1 0.61,0.76 1.41,1.32 2.39,1.68 0.99,0.37 2.25,0.55 3.81,0.55 2.16,0 3.81,-0.46 4.98,-1.36 1.17,-0.91 1.77,-2.23 1.81,-3.97 0.02,-1.12 -0.19,-2.05 -0.66,-2.81 -0.46,-0.76 -1.23,-1.47 -2.29,-2.14 -1.07,-0.66 -2.71,-1.45 -4.91,-2.34 -2.14,-0.86 -3.81,-1.7 -5.04,-2.53 -1.24,-0.83 -2.15,-1.72 -2.75,-2.69 -0.59,-0.97 -0.88,-2.02 -0.85,-3.17 0.03,-1.67 0.55,-3.1 1.54,-4.34 0.99,-1.22 2.42,-2.17 4.3,-2.84 1.89,-0.67 4.03,-1 6.43,-1 1.4,0 2.76,0.06 4.09,0.18 1.33,0.12 2.99,0.38 4.98,0.8l-0.13 6.02 -2.72 0c-0.4,-1.31 -0.9,-2.33 -1.54,-3.05 -0.62,-0.73 -1.36,-1.24 -2.22,-1.53 -0.86,-0.29 -1.98,-0.43 -3.35,-0.43 -1.2,0 -2.27,0.17 -3.23,0.53 -0.95,0.36 -1.71,0.9 -2.27,1.62 -0.57,0.72 -0.86,1.58 -0.89,2.57 -0.02,1.06 0.2,1.95 0.64,2.67 0.46,0.74 1.18,1.41 2.15,2.04 0.98,0.62 2.44,1.32 4.37,2.09 2.33,0.95 4.13,1.84 5.41,2.66 1.28,0.82 2.27,1.75 2.97,2.8 0.71,1.04 1.05,2.27 1.02,3.67 -0.04,1.56 -0.38,2.87 -1,3.96 -0.64,1.07 -1.49,1.95 -2.58,2.62 -1.09,0.68 -2.39,1.17 -3.89,1.48 -1.51,0.3 -3.15,0.46 -4.93,0.46 -2.88,0 -6.2,-0.4 -9.95,-1.18l0.13 -6.12 2.76 0z"/>
  <path class="fil5" d="M27.12 139.77c-0.7,0 -1.34,-0.06 -1.95,-0.17 -0.6,-0.12 -1.16,-0.28 -1.68,-0.51l0.22 -1.73c0.63,0.27 1.24,0.47 1.83,0.61 0.59,0.14 1.16,0.21 1.71,0.21 0.81,0 1.4,-0.14 1.79,-0.42 0.39,-0.28 0.59,-0.7 0.59,-1.28 0,-0.73 -0.38,-1.26 -1.12,-1.6l-2.12 -0.96c-0.83,-0.38 -1.46,-0.83 -1.91,-1.36 -0.44,-0.54 -0.66,-1.2 -0.66,-1.99 0,-1.07 0.32,-1.89 0.96,-2.48 0.64,-0.58 1.55,-0.87 2.72,-0.87 0.82,0 1.55,0.12 2.18,0.36 0.63,0.24 1.24,0.63 1.82,1.18l-1.2 1.22c-0.51,-0.42 -0.98,-0.72 -1.42,-0.9 -0.43,-0.19 -0.89,-0.28 -1.37,-0.28 -0.59,0 -1.05,0.14 -1.37,0.42 -0.32,0.29 -0.48,0.71 -0.48,1.26 0,0.4 0.1,0.72 0.31,0.97 0.22,0.25 0.53,0.47 0.94,0.66l1.79 0.85c0.9,0.42 1.59,0.9 2.06,1.43 0.47,0.54 0.71,1.22 0.71,2.06 0,1.1 -0.36,1.93 -1.08,2.49 -0.72,0.55 -1.81,0.83 -3.27,0.83z"/>
  <path id="1" class="fil5" d="M38.15 139.77c-1.55,0 -2.75,-0.41 -3.6,-1.23 -0.84,-0.82 -1.27,-1.99 -1.27,-3.52 0,-1.49 0.41,-2.65 1.2,-3.47 0.8,-0.83 1.95,-1.24 3.43,-1.24 0.89,0 1.65,0.17 2.28,0.49 0.63,0.34 1.09,0.8 1.36,1.4l-1.41 1.06c-0.26,-0.42 -0.58,-0.74 -0.99,-0.97 -0.39,-0.23 -0.83,-0.35 -1.31,-0.35 -0.86,0 -1.53,0.26 -2,0.78 -0.48,0.52 -0.72,1.26 -0.72,2.21 0,1.04 0.29,1.83 0.84,2.38 0.56,0.55 1.36,0.82 2.4,0.82 0.42,0 0.84,-0.02 1.27,-0.06 0.42,-0.04 0.84,-0.09 1.23,-0.16l0.21 1.6c-0.47,0.1 -0.95,0.17 -1.46,0.2 -0.5,0.04 -0.98,0.06 -1.46,0.06z"/>
  <path id="2" class="fil5" d="M46.39 135.67l-0.53 -2.85 0.7 0c0.11,-1.67 0.94,-2.51 2.51,-2.51 0.94,0 1.62,0.27 2.05,0.81 0.42,0.54 0.63,1.41 0.63,2.61l-1.8 0c0,-0.66 -0.1,-1.14 -0.3,-1.43 -0.2,-0.3 -0.52,-0.44 -0.96,-0.44 -0.77,0 -1.35,0.33 -1.73,0.99 -0.38,0.66 -0.57,1.6 -0.57,2.82zm-3.85 3.92l0 -1.49 6.09 0 0 1.49 -6.09 0zm2.03 0l0 -9.11 1.48 0 0.34 2.61 0 6.5 -1.82 0zm-1.69 -7.61l0 -1.5 3.05 0 0.17 1.5 -3.22 0z"/>
  <path id="3" class="fil5" d="M56.43 139.59l0 -8.59 1.82 0 0 8.59 -1.82 0zm-3.47 0l0 -1.49 3.65 0 0 1.49 -3.65 0zm5.12 0l0 -1.49 2.98 0 0 1.49 -2.98 0zm-4.6 -7.61l0 -1.5 4.77 0 0 1.5 -4.77 0zm3.8 -2.94c-0.35,0 -0.64,-0.13 -0.89,-0.38 -0.25,-0.24 -0.38,-0.54 -0.38,-0.89 0,-0.36 0.13,-0.66 0.38,-0.91 0.25,-0.24 0.54,-0.37 0.89,-0.37 0.36,0 0.66,0.13 0.91,0.37 0.24,0.25 0.37,0.55 0.37,0.91 0,0.35 -0.13,0.65 -0.37,0.89 -0.25,0.25 -0.55,0.38 -0.91,0.38z"/>
  <path id="4" class="fil5" d="M62.77 143.55l0 -13.07 1.65 0 0.17 1.93 0 11.14 -1.82 0zm4.4 -3.78c-0.69,0 -1.26,-0.17 -1.69,-0.49 -0.42,-0.32 -0.66,-0.76 -0.72,-1.34l-0.79 0 0.62 -2.59c0,0.94 0.18,1.65 0.55,2.14 0.37,0.48 0.91,0.73 1.63,0.73 0.73,0 1.29,-0.26 1.67,-0.78 0.38,-0.53 0.56,-1.3 0.56,-2.32 0,-1.07 -0.18,-1.89 -0.56,-2.44 -0.38,-0.55 -0.94,-0.82 -1.67,-0.82 -0.72,0 -1.26,0.24 -1.63,0.73 -0.37,0.48 -0.55,1.2 -0.55,2.14l-0.62 -2.6 0.7 0c0.08,-0.57 0.34,-1.02 0.78,-1.34 0.44,-0.32 1.01,-0.48 1.72,-0.48 1.2,0 2.11,0.41 2.72,1.22 0.61,0.81 0.92,2.01 0.92,3.59 0,1.53 -0.31,2.68 -0.92,3.47 -0.61,0.78 -1.52,1.18 -2.72,1.18z"/>
  <path id="5" class="fil5" d="M77.86 139.77c-1.38,0 -2.38,-0.29 -2.99,-0.86 -0.62,-0.58 -0.93,-1.49 -0.93,-2.76l0 -1.54 1.83 0 0 1.46c0,0.72 0.17,1.25 0.53,1.57 0.35,0.33 0.93,0.49 1.74,0.49 0.28,0 0.59,-0.01 0.91,-0.04 0.32,-0.04 0.68,-0.08 1.1,-0.13l0.2 1.6c-0.4,0.07 -0.79,0.12 -1.17,0.15 -0.38,0.04 -0.79,0.06 -1.22,0.06zm-3.92 -4.47l0 -7.57 1.83 0 0 7.57 -1.83 0zm-2.28 -3.32l0 -1.5 8.25 0 0 1.5 -8.25 0z"/>
  <path id="6" class="fil5" d="M87.82 139.68l-0.12 -2.7 -0.24 -0.75 0 -2.36c0,-0.61 -0.21,-1.05 -0.64,-1.34 -0.42,-0.28 -1.06,-0.44 -1.9,-0.46l-2.19 -0.06 0.18 -1.61 1.84 0.02c1.5,0.03 2.62,0.35 3.35,0.98 0.73,0.62 1.1,1.54 1.1,2.75l0 3.79 1.55 0.19 0 1.46 -2.93 0.09zm-3.21 0.09c-0.95,0 -1.69,-0.24 -2.21,-0.69 -0.52,-0.46 -0.78,-1.11 -0.78,-1.95 0,-0.96 0.36,-1.7 1.08,-2.21 0.71,-0.52 1.73,-0.77 3.04,-0.77 0.55,0 1.03,0.03 1.46,0.09 0.43,0.07 0.81,0.17 1.14,0.3l-0.38 1.24c-0.38,-0.09 -0.76,-0.14 -1.12,-0.15 -0.37,-0.02 -0.75,-0.02 -1.13,-0.02 -1.58,0 -2.37,0.48 -2.37,1.44 0,0.4 0.13,0.71 0.4,0.93 0.28,0.21 0.66,0.32 1.16,0.32 0.57,0 1.04,-0.09 1.42,-0.29 0.38,-0.19 0.67,-0.44 0.86,-0.75 0.19,-0.3 0.28,-0.61 0.28,-0.93l0 -1 0.53 2.34 -0.72 0 0.3 -0.28c0,0.53 -0.13,0.97 -0.37,1.32 -0.24,0.35 -0.59,0.62 -1.03,0.79 -0.44,0.18 -0.96,0.27 -1.56,0.27z"/>
  <path id="7" class="fil5" d="M102.74 134.61l0.25 -1.98 0.11 0 1.39 -5.24 1.22 0 0 2.16 -0.5 0 -1.39 5.06 -1.08 0zm-3.77 4.98l0 -12.2 1.65 0 0 12.2 -1.65 0zm3.27 -4.98l-1.39 -5.06 -0.5 0 0 -2.16 1.22 0 1.39 5.24 0.07 0 0.17 1.98 -0.96 0zm3.19 4.98l0 -12.2 1.66 0 0 12.2 -1.66 0z"/>
  <path id="8" class="fil5" d="M114.64 139.68l-0.12 -2.7 -0.25 -0.75 0 -2.36c0,-0.61 -0.21,-1.05 -0.63,-1.34 -0.43,-0.28 -1.07,-0.44 -1.91,-0.46l-2.18 -0.06 0.17 -1.61 1.84 0.02c1.51,0.03 2.63,0.35 3.36,0.98 0.73,0.62 1.09,1.54 1.09,2.75l0 3.79 1.55 0.19 0 1.46 -2.92 0.09zm-3.22 0.09c-0.95,0 -1.68,-0.24 -2.21,-0.69 -0.52,-0.46 -0.78,-1.11 -0.78,-1.95 0,-0.96 0.36,-1.7 1.08,-2.21 0.72,-0.52 1.73,-0.77 3.05,-0.77 0.54,0 1.03,0.03 1.45,0.09 0.43,0.07 0.81,0.17 1.14,0.3l-0.38 1.24c-0.38,-0.09 -0.75,-0.14 -1.12,-0.15 -0.37,-0.02 -0.74,-0.02 -1.13,-0.02 -1.58,0 -2.37,0.48 -2.37,1.44 0,0.4 0.14,0.71 0.41,0.93 0.27,0.21 0.66,0.32 1.15,0.32 0.57,0 1.04,-0.09 1.43,-0.29 0.38,-0.19 0.66,-0.44 0.85,-0.75 0.19,-0.3 0.28,-0.61 0.28,-0.93l0 -1 0.54 2.34 -0.72 0 0.29 -0.28c0,0.53 -0.12,0.97 -0.37,1.32 -0.24,0.35 -0.58,0.62 -1.02,0.79 -0.44,0.18 -0.97,0.27 -1.57,0.27z"/>
  <path id="9" class="fil5" d="M124.39 139.59l0 -5.93c0,-0.55 -0.14,-0.97 -0.43,-1.27 -0.29,-0.3 -0.69,-0.45 -1.2,-0.45 -1.44,0 -2.15,0.85 -2.15,2.53l-0.53 -2.34 0.7 0c0.05,-0.61 0.28,-1.07 0.67,-1.37 0.39,-0.3 0.97,-0.45 1.74,-0.45 0.96,0 1.7,0.29 2.23,0.88 0.53,0.58 0.79,1.41 0.79,2.47l0 5.93 -1.82 0zm-5.61 0l0 -9.11 1.66 0 0.17 1.93 0 7.18 -1.83 0z"/>
  <path id="10" class="fil5" d="M133.11 139.77c-1.55,0 -2.75,-0.41 -3.6,-1.23 -0.84,-0.82 -1.27,-1.99 -1.27,-3.52 0,-1.49 0.37,-2.65 1.08,-3.47 0.72,-0.83 1.73,-1.24 3.03,-1.24 1.24,0 2.19,0.37 2.86,1.12 0.67,0.74 1.01,1.83 1.01,3.25 0,0.42 -0.02,0.81 -0.05,1.17l-6.39 0 0 -1.4 4.79 0c0,-0.82 -0.19,-1.45 -0.58,-1.88 -0.39,-0.44 -0.93,-0.66 -1.62,-0.66 -0.77,0 -1.37,0.26 -1.8,0.79 -0.43,0.53 -0.64,1.27 -0.64,2.23 0,1.06 0.29,1.86 0.88,2.41 0.59,0.55 1.42,0.83 2.51,0.83 0.37,0 0.75,-0.03 1.11,-0.07 0.37,-0.04 0.74,-0.1 1.12,-0.17l0.22 1.6c-0.53,0.1 -1.03,0.16 -1.47,0.19 -0.45,0.03 -0.85,0.05 -1.19,0.05z"/>
  <path id="11" class="fil5" d="M143.86 139.59l0 -5.93c0,-0.55 -0.14,-0.97 -0.43,-1.27 -0.29,-0.3 -0.69,-0.45 -1.2,-0.45 -1.44,0 -2.15,0.85 -2.15,2.53l-0.53 -2.34 0.7 0c0.05,-0.61 0.28,-1.07 0.67,-1.37 0.39,-0.3 0.97,-0.45 1.74,-0.45 0.96,0 1.7,0.29 2.23,0.88 0.53,0.58 0.79,1.41 0.79,2.47l0 5.93 -1.82 0zm-5.6 0l0 -9.11 1.65 0 0.17 1.93 0 7.18 -1.82 0z"/>
  <path id="12" class="fil5" d="M153.35 139.77c-1.38,0 -2.38,-0.29 -2.99,-0.86 -0.62,-0.58 -0.93,-1.49 -0.93,-2.76l0 -1.54 1.83 0 0 1.46c0,0.72 0.17,1.25 0.53,1.57 0.35,0.33 0.93,0.49 1.74,0.49 0.28,0 0.59,-0.01 0.91,-0.04 0.32,-0.04 0.68,-0.08 1.1,-0.13l0.2 1.6c-0.4,0.07 -0.79,0.12 -1.17,0.15 -0.38,0.04 -0.79,0.06 -1.22,0.06zm-3.92 -4.47l0 -7.57 1.83 0 0 7.57 -1.83 0zm-2.28 -3.32l0 -1.5 8.25 0 0 1.5 -8.25 0z"/>
 </g>
</svg>
