<svg xmlns="http://www.w3.org/2000/svg" viewBox="0 0 512 512">
  <defs>
    <linearGradient id="bg-gradient" x1="0%" y1="0%" x2="100%" y2="100%">
      <stop offset="0%" style="stop-color:#6366f1"/>
      <stop offset="100%" style="stop-color:#4f46e5"/>
    </linearGradient>
  </defs>

  <!-- Background -->
  <rect width="512" height="512" rx="96" fill="url(#bg-gradient)"/>

  <!-- Document/Scroll icon -->
  <g transform="translate(96, 64)">
    <!-- Paper/Document -->
    <path d="M240 0H80C53.5 0 32 21.5 32 48v288c0 26.5 21.5 48 48 48h160c26.5 0 48-21.5 48-48V80L240 0z" fill="white" opacity="0.95"/>

    <!-- Folded corner -->
    <path d="M240 0v48c0 17.7 14.3 32 32 32h48L240 0z" fill="white" opacity="0.7"/>

    <!-- Lines on document -->
    <rect x="72" y="120" width="160" height="12" rx="6" fill="#6366f1" opacity="0.3"/>
    <rect x="72" y="152" width="120" height="12" rx="6" fill="#6366f1" opacity="0.3"/>
    <rect x="72" y="184" width="140" height="12" rx="6" fill="#6366f1" opacity="0.3"/>
    <rect x="72" y="216" width="100" height="12" rx="6" fill="#6366f1" opacity="0.3"/>

    <!-- Pen -->
    <g transform="translate(180, 200) rotate(45)">
      <rect x="0" y="0" width="24" height="120" rx="4" fill="#f59e0b"/>
      <polygon points="12,120 0,144 24,144" fill="#374151"/>
      <rect x="0" y="0" width="24" height="20" rx="4" fill="#fbbf24"/>
    </g>
  </g>
</svg>
